%FSLAX45Y45*%
G04 Gerber Fmt 4.5, Leading zero omitted, Abs format (unit mm)*
G04 Created by KiCad (PCBNEW 4.0.1-stable) date 2017年05月07日日曜日 11:35:40*
%MOMM*%
G01*
G04 APERTURE LIST*
%ADD10C,0.127000*%
%ADD11C,0.150000*%
%ADD12C,0.200000*%
%ADD13C,0.300000*%
G04 APERTURE END LIST*
D10*
D11*
X11200000Y-13500000D02*
X18400000Y-13500000D01*
X11200000Y-8800000D02*
X11200000Y-13500000D01*
X18400000Y-8800000D02*
X18400000Y-13500000D01*
X11200000Y-8800000D02*
X18400000Y-8800000D01*
D12*
X13188000Y-11537000D02*
X13228000Y-11577000D01*
X13228000Y-11537000D02*
X13188000Y-11577000D01*
X13188000Y-12362500D02*
X13228000Y-12402500D01*
X13228000Y-12362500D02*
X13188000Y-12402500D01*
X13696000Y-9695500D02*
X13736000Y-9735500D01*
X13736000Y-9695500D02*
X13696000Y-9735500D01*
X13696000Y-11664000D02*
X13736000Y-11704000D01*
X13736000Y-11664000D02*
X13696000Y-11704000D01*
X13696000Y-12362500D02*
X13736000Y-12402500D01*
X13736000Y-12362500D02*
X13696000Y-12402500D01*
X14204000Y-9695500D02*
X14244000Y-9735500D01*
X14244000Y-9695500D02*
X14204000Y-9735500D01*
X14204000Y-10394000D02*
X14244000Y-10434000D01*
X14244000Y-10394000D02*
X14204000Y-10434000D01*
X14458000Y-9695500D02*
X14498000Y-9735500D01*
X14498000Y-9695500D02*
X14458000Y-9735500D01*
X14458000Y-10394000D02*
X14498000Y-10434000D01*
X14498000Y-10394000D02*
X14458000Y-10434000D01*
X15220000Y-11664000D02*
X15260000Y-11704000D01*
X15260000Y-11664000D02*
X15220000Y-11704000D01*
X15220000Y-12362500D02*
X15260000Y-12402500D01*
X15260000Y-12362500D02*
X15220000Y-12402500D01*
X15347000Y-10394000D02*
X15387000Y-10434000D01*
X15387000Y-10394000D02*
X15347000Y-10434000D01*
X15474000Y-9695500D02*
X15514000Y-9735500D01*
X15514000Y-9695500D02*
X15474000Y-9735500D01*
X15474000Y-11664000D02*
X15514000Y-11704000D01*
X15514000Y-11664000D02*
X15474000Y-11704000D01*
X15474000Y-12362500D02*
X15514000Y-12402500D01*
X15514000Y-12362500D02*
X15474000Y-12402500D01*
X15728000Y-9695500D02*
X15768000Y-9735500D01*
X15768000Y-9695500D02*
X15728000Y-9735500D01*
X15728000Y-11664000D02*
X15768000Y-11704000D01*
X15768000Y-11664000D02*
X15728000Y-11704000D01*
X15728000Y-12362500D02*
X15768000Y-12402500D01*
X15768000Y-12362500D02*
X15728000Y-12402500D01*
X15855000Y-10394000D02*
X15895000Y-10434000D01*
X15895000Y-10394000D02*
X15855000Y-10434000D01*
X16236000Y-11664000D02*
X16276000Y-11704000D01*
X16276000Y-11664000D02*
X16236000Y-11704000D01*
X16236000Y-12362500D02*
X16276000Y-12402500D01*
X16276000Y-12362500D02*
X16236000Y-12402500D01*
X16744000Y-9695500D02*
X16784000Y-9735500D01*
X16784000Y-9695500D02*
X16744000Y-9735500D01*
X16744000Y-10394000D02*
X16784000Y-10434000D01*
X16784000Y-10394000D02*
X16744000Y-10434000D01*
X16998000Y-9695500D02*
X17038000Y-9735500D01*
X17038000Y-9695500D02*
X16998000Y-9735500D01*
X16998000Y-10394000D02*
X17038000Y-10434000D01*
X17038000Y-10394000D02*
X16998000Y-10434000D01*
X17506000Y-9695500D02*
X17546000Y-9735500D01*
X17546000Y-9695500D02*
X17506000Y-9735500D01*
X13502000Y-11688000D02*
G75*
G03X13502000Y-11688000I-40000J0D01*
G01*
X13502000Y-11938000D02*
G75*
G03X13502000Y-11938000I-40000J0D01*
G01*
X14010000Y-10160000D02*
G75*
G03X14010000Y-10160000I-40000J0D01*
G01*
X14010000Y-10414000D02*
G75*
G03X14010000Y-10414000I-40000J0D01*
G01*
X14010000Y-10668000D02*
G75*
G03X14010000Y-10668000I-40000J0D01*
G01*
X14010000Y-10922000D02*
G75*
G03X14010000Y-10922000I-40000J0D01*
G01*
X14010000Y-11176000D02*
G75*
G03X14010000Y-11176000I-40000J0D01*
G01*
X14010000Y-11430000D02*
G75*
G03X14010000Y-11430000I-40000J0D01*
G01*
X14010000Y-11684000D02*
G75*
G03X14010000Y-11684000I-40000J0D01*
G01*
X14010000Y-11938000D02*
G75*
G03X14010000Y-11938000I-40000J0D01*
G01*
X14772000Y-10160000D02*
G75*
G03X14772000Y-10160000I-40000J0D01*
G01*
X14772000Y-10414000D02*
G75*
G03X14772000Y-10414000I-40000J0D01*
G01*
X14772000Y-10668000D02*
G75*
G03X14772000Y-10668000I-40000J0D01*
G01*
X14772000Y-10922000D02*
G75*
G03X14772000Y-10922000I-40000J0D01*
G01*
X14772000Y-11176000D02*
G75*
G03X14772000Y-11176000I-40000J0D01*
G01*
X14772000Y-11430000D02*
G75*
G03X14772000Y-11430000I-40000J0D01*
G01*
X14772000Y-11684000D02*
G75*
G03X14772000Y-11684000I-40000J0D01*
G01*
X14772000Y-11938000D02*
G75*
G03X14772000Y-11938000I-40000J0D01*
G01*
X15280000Y-10160000D02*
G75*
G03X15280000Y-10160000I-40000J0D01*
G01*
X15280000Y-10660000D02*
G75*
G03X15280000Y-10660000I-40000J0D01*
G01*
X16042000Y-11688000D02*
G75*
G03X16042000Y-11688000I-40000J0D01*
G01*
X16042000Y-11938000D02*
G75*
G03X16042000Y-11938000I-40000J0D01*
G01*
X16550000Y-10160000D02*
G75*
G03X16550000Y-10160000I-40000J0D01*
G01*
X16550000Y-10414000D02*
G75*
G03X16550000Y-10414000I-40000J0D01*
G01*
X16550000Y-10668000D02*
G75*
G03X16550000Y-10668000I-40000J0D01*
G01*
X16550000Y-10922000D02*
G75*
G03X16550000Y-10922000I-40000J0D01*
G01*
X16550000Y-11176000D02*
G75*
G03X16550000Y-11176000I-40000J0D01*
G01*
X16550000Y-11430000D02*
G75*
G03X16550000Y-11430000I-40000J0D01*
G01*
X16550000Y-11684000D02*
G75*
G03X16550000Y-11684000I-40000J0D01*
G01*
X16550000Y-11938000D02*
G75*
G03X16550000Y-11938000I-40000J0D01*
G01*
X17312000Y-10160000D02*
G75*
G03X17312000Y-10160000I-40000J0D01*
G01*
X17312000Y-10414000D02*
G75*
G03X17312000Y-10414000I-40000J0D01*
G01*
X17312000Y-10668000D02*
G75*
G03X17312000Y-10668000I-40000J0D01*
G01*
X17312000Y-10922000D02*
G75*
G03X17312000Y-10922000I-40000J0D01*
G01*
X17312000Y-11176000D02*
G75*
G03X17312000Y-11176000I-40000J0D01*
G01*
X17312000Y-11430000D02*
G75*
G03X17312000Y-11430000I-40000J0D01*
G01*
X17312000Y-11684000D02*
G75*
G03X17312000Y-11684000I-40000J0D01*
G01*
X17312000Y-11938000D02*
G75*
G03X17312000Y-11938000I-40000J0D01*
G01*
X17820000Y-10160000D02*
G75*
G03X17820000Y-10160000I-40000J0D01*
G01*
X17820000Y-10660000D02*
G75*
G03X17820000Y-10660000I-40000J0D01*
G01*
X12382400Y-10064000D02*
X12382400Y-10164000D01*
X12332400Y-10114000D02*
X12432400Y-10114000D01*
X12342400Y-10014000D02*
X12342400Y-10214000D01*
X12422400Y-10014000D02*
X12422400Y-10214000D01*
X12342400Y-10214000D02*
G75*
G03X12422400Y-10214000I40000J0D01*
G01*
X12422400Y-10014000D02*
G75*
G03X12342400Y-10014000I-40000J0D01*
G01*
X12496800Y-11024400D02*
X12496800Y-11124400D01*
X12446800Y-11074400D02*
X12546800Y-11074400D01*
X12750800Y-11024400D02*
X12750800Y-11124400D01*
X12700800Y-11074400D02*
X12800800Y-11074400D01*
X12852400Y-9764000D02*
X12852400Y-9864000D01*
X12802400Y-9814000D02*
X12902400Y-9814000D01*
X12952400Y-9774000D02*
X12752400Y-9774000D01*
X12952400Y-9854000D02*
X12752400Y-9854000D01*
X12752400Y-9774000D02*
G75*
G03X12752400Y-9854000I0J-40000D01*
G01*
X12952400Y-9854000D02*
G75*
G03X12952400Y-9774000I0J40000D01*
G01*
X12852400Y-10364000D02*
X12852400Y-10464000D01*
X12802400Y-10414000D02*
X12902400Y-10414000D01*
X12952400Y-10374000D02*
X12752400Y-10374000D01*
X12952400Y-10454000D02*
X12752400Y-10454000D01*
X12752400Y-10374000D02*
G75*
G03X12752400Y-10454000I0J-40000D01*
G01*
X12952400Y-10454000D02*
G75*
G03X12952400Y-10374000I0J40000D01*
G01*
X14732000Y-8967000D02*
X14732000Y-9067000D01*
X14682000Y-9017000D02*
X14782000Y-9017000D01*
X14732000Y-13221500D02*
X14732000Y-13321500D01*
X14682000Y-13271500D02*
X14782000Y-13271500D01*
X14986000Y-8967000D02*
X14986000Y-9067000D01*
X14936000Y-9017000D02*
X15036000Y-9017000D01*
X14986000Y-13221500D02*
X14986000Y-13321500D01*
X14936000Y-13271500D02*
X15036000Y-13271500D01*
X15240000Y-8967000D02*
X15240000Y-9067000D01*
X15190000Y-9017000D02*
X15290000Y-9017000D01*
X15240000Y-13221500D02*
X15240000Y-13321500D01*
X15190000Y-13271500D02*
X15290000Y-13271500D01*
X15494000Y-8967000D02*
X15494000Y-9067000D01*
X15444000Y-9017000D02*
X15544000Y-9017000D01*
X15494000Y-13221500D02*
X15494000Y-13321500D01*
X15444000Y-13271500D02*
X15544000Y-13271500D01*
X15748000Y-8967000D02*
X15748000Y-9067000D01*
X15698000Y-9017000D02*
X15798000Y-9017000D01*
X15748000Y-13221500D02*
X15748000Y-13321500D01*
X15698000Y-13271500D02*
X15798000Y-13271500D01*
X16002000Y-8967000D02*
X16002000Y-9067000D01*
X15952000Y-9017000D02*
X16052000Y-9017000D01*
X16002000Y-13221500D02*
X16002000Y-13321500D01*
X15952000Y-13271500D02*
X16052000Y-13271500D01*
X16256000Y-8967000D02*
X16256000Y-9067000D01*
X16206000Y-9017000D02*
X16306000Y-9017000D01*
X16256000Y-13221500D02*
X16256000Y-13321500D01*
X16206000Y-13271500D02*
X16306000Y-13271500D01*
X16510000Y-8967000D02*
X16510000Y-9067000D01*
X16460000Y-9017000D02*
X16560000Y-9017000D01*
X16510000Y-13221500D02*
X16510000Y-13321500D01*
X16460000Y-13271500D02*
X16560000Y-13271500D01*
D13*
X11463928Y-13973214D02*
X11463928Y-13673214D01*
X11535357Y-13673214D01*
X11578214Y-13687500D01*
X11606786Y-13716071D01*
X11621071Y-13744643D01*
X11635357Y-13801786D01*
X11635357Y-13844643D01*
X11621071Y-13901786D01*
X11606786Y-13930357D01*
X11578214Y-13958929D01*
X11535357Y-13973214D01*
X11463928Y-13973214D01*
X11763928Y-13973214D02*
X11763928Y-13773214D01*
X11763928Y-13830357D02*
X11778214Y-13801786D01*
X11792500Y-13787500D01*
X11821071Y-13773214D01*
X11849643Y-13773214D01*
X11949643Y-13973214D02*
X11949643Y-13773214D01*
X11949643Y-13673214D02*
X11935357Y-13687500D01*
X11949643Y-13701786D01*
X11963928Y-13687500D01*
X11949643Y-13673214D01*
X11949643Y-13701786D01*
X12135357Y-13973214D02*
X12106786Y-13958929D01*
X12092500Y-13930357D01*
X12092500Y-13673214D01*
X12292500Y-13973214D02*
X12263928Y-13958929D01*
X12249643Y-13930357D01*
X12249643Y-13673214D01*
X12635357Y-13973214D02*
X12635357Y-13673214D01*
X12735357Y-13887500D01*
X12835357Y-13673214D01*
X12835357Y-13973214D01*
X13106786Y-13973214D02*
X13106786Y-13816071D01*
X13092500Y-13787500D01*
X13063928Y-13773214D01*
X13006786Y-13773214D01*
X12978214Y-13787500D01*
X13106786Y-13958929D02*
X13078214Y-13973214D01*
X13006786Y-13973214D01*
X12978214Y-13958929D01*
X12963928Y-13930357D01*
X12963928Y-13901786D01*
X12978214Y-13873214D01*
X13006786Y-13858929D01*
X13078214Y-13858929D01*
X13106786Y-13844643D01*
X13249643Y-13773214D02*
X13249643Y-14073214D01*
X13249643Y-13787500D02*
X13278214Y-13773214D01*
X13335357Y-13773214D01*
X13363928Y-13787500D01*
X13378214Y-13801786D01*
X13392500Y-13830357D01*
X13392500Y-13916071D01*
X13378214Y-13944643D01*
X13363928Y-13958929D01*
X13335357Y-13973214D01*
X13278214Y-13973214D01*
X13249643Y-13958929D01*
X13521071Y-13944643D02*
X13535357Y-13958929D01*
X13521071Y-13973214D01*
X13506786Y-13958929D01*
X13521071Y-13944643D01*
X13521071Y-13973214D01*
X13521071Y-13787500D02*
X13535357Y-13801786D01*
X13521071Y-13816071D01*
X13506786Y-13801786D01*
X13521071Y-13787500D01*
X13521071Y-13816071D01*
X11152500Y-14447500D02*
X11192500Y-14487500D01*
X11192500Y-14447500D02*
X11152500Y-14487500D01*
X11521071Y-14303214D02*
X11549643Y-14303214D01*
X11578214Y-14317500D01*
X11592500Y-14331786D01*
X11606786Y-14360357D01*
X11621071Y-14417500D01*
X11621071Y-14488929D01*
X11606786Y-14546071D01*
X11592500Y-14574643D01*
X11578214Y-14588929D01*
X11549643Y-14603214D01*
X11521071Y-14603214D01*
X11492500Y-14588929D01*
X11478214Y-14574643D01*
X11463928Y-14546071D01*
X11449643Y-14488929D01*
X11449643Y-14417500D01*
X11463928Y-14360357D01*
X11478214Y-14331786D01*
X11492500Y-14317500D01*
X11521071Y-14303214D01*
X11749643Y-14574643D02*
X11763928Y-14588929D01*
X11749643Y-14603214D01*
X11735357Y-14588929D01*
X11749643Y-14574643D01*
X11749643Y-14603214D01*
X12021071Y-14403214D02*
X12021071Y-14603214D01*
X11949643Y-14288929D02*
X11878214Y-14503214D01*
X12063928Y-14503214D01*
X12235357Y-14303214D02*
X12263928Y-14303214D01*
X12292500Y-14317500D01*
X12306786Y-14331786D01*
X12321071Y-14360357D01*
X12335357Y-14417500D01*
X12335357Y-14488929D01*
X12321071Y-14546071D01*
X12306786Y-14574643D01*
X12292500Y-14588929D01*
X12263928Y-14603214D01*
X12235357Y-14603214D01*
X12206786Y-14588929D01*
X12192500Y-14574643D01*
X12178214Y-14546071D01*
X12163928Y-14488929D01*
X12163928Y-14417500D01*
X12178214Y-14360357D01*
X12192500Y-14331786D01*
X12206786Y-14317500D01*
X12235357Y-14303214D01*
X12463928Y-14603214D02*
X12463928Y-14403214D01*
X12463928Y-14431786D02*
X12478214Y-14417500D01*
X12506786Y-14403214D01*
X12549643Y-14403214D01*
X12578214Y-14417500D01*
X12592500Y-14446071D01*
X12592500Y-14603214D01*
X12592500Y-14446071D02*
X12606786Y-14417500D01*
X12635357Y-14403214D01*
X12678214Y-14403214D01*
X12706786Y-14417500D01*
X12721071Y-14446071D01*
X12721071Y-14603214D01*
X12863928Y-14603214D02*
X12863928Y-14403214D01*
X12863928Y-14431786D02*
X12878214Y-14417500D01*
X12906786Y-14403214D01*
X12949643Y-14403214D01*
X12978214Y-14417500D01*
X12992500Y-14446071D01*
X12992500Y-14603214D01*
X12992500Y-14446071D02*
X13006786Y-14417500D01*
X13035357Y-14403214D01*
X13078214Y-14403214D01*
X13106786Y-14417500D01*
X13121071Y-14446071D01*
X13121071Y-14603214D01*
X13706786Y-14288929D02*
X13449643Y-14674643D01*
X14092500Y-14303214D02*
X14121071Y-14303214D01*
X14149643Y-14317500D01*
X14163928Y-14331786D01*
X14178214Y-14360357D01*
X14192500Y-14417500D01*
X14192500Y-14488929D01*
X14178214Y-14546071D01*
X14163928Y-14574643D01*
X14149643Y-14588929D01*
X14121071Y-14603214D01*
X14092500Y-14603214D01*
X14063928Y-14588929D01*
X14049643Y-14574643D01*
X14035357Y-14546071D01*
X14021071Y-14488929D01*
X14021071Y-14417500D01*
X14035357Y-14360357D01*
X14049643Y-14331786D01*
X14063928Y-14317500D01*
X14092500Y-14303214D01*
X14321071Y-14574643D02*
X14335357Y-14588929D01*
X14321071Y-14603214D01*
X14306786Y-14588929D01*
X14321071Y-14574643D01*
X14321071Y-14603214D01*
X14521071Y-14303214D02*
X14549643Y-14303214D01*
X14578214Y-14317500D01*
X14592500Y-14331786D01*
X14606785Y-14360357D01*
X14621071Y-14417500D01*
X14621071Y-14488929D01*
X14606785Y-14546071D01*
X14592500Y-14574643D01*
X14578214Y-14588929D01*
X14549643Y-14603214D01*
X14521071Y-14603214D01*
X14492500Y-14588929D01*
X14478214Y-14574643D01*
X14463928Y-14546071D01*
X14449643Y-14488929D01*
X14449643Y-14417500D01*
X14463928Y-14360357D01*
X14478214Y-14331786D01*
X14492500Y-14317500D01*
X14521071Y-14303214D01*
X14906785Y-14603214D02*
X14735357Y-14603214D01*
X14821071Y-14603214D02*
X14821071Y-14303214D01*
X14792500Y-14346071D01*
X14763928Y-14374643D01*
X14735357Y-14388929D01*
X15163928Y-14303214D02*
X15106785Y-14303214D01*
X15078214Y-14317500D01*
X15063928Y-14331786D01*
X15035357Y-14374643D01*
X15021071Y-14431786D01*
X15021071Y-14546071D01*
X15035357Y-14574643D01*
X15049643Y-14588929D01*
X15078214Y-14603214D01*
X15135357Y-14603214D01*
X15163928Y-14588929D01*
X15178214Y-14574643D01*
X15192500Y-14546071D01*
X15192500Y-14474643D01*
X15178214Y-14446071D01*
X15163928Y-14431786D01*
X15135357Y-14417500D01*
X15078214Y-14417500D01*
X15049643Y-14431786D01*
X15035357Y-14446071D01*
X15021071Y-14474643D01*
X15306786Y-14303214D02*
X15306786Y-14360357D01*
X15421071Y-14303214D02*
X15421071Y-14360357D01*
X15863928Y-14717500D02*
X15849643Y-14703214D01*
X15821071Y-14660357D01*
X15806785Y-14631786D01*
X15792500Y-14588929D01*
X15778214Y-14517500D01*
X15778214Y-14460357D01*
X15792500Y-14388929D01*
X15806785Y-14346071D01*
X15821071Y-14317500D01*
X15849643Y-14274643D01*
X15863928Y-14260357D01*
X15963928Y-14331786D02*
X15978214Y-14317500D01*
X16006785Y-14303214D01*
X16078214Y-14303214D01*
X16106785Y-14317500D01*
X16121071Y-14331786D01*
X16135357Y-14360357D01*
X16135357Y-14388929D01*
X16121071Y-14431786D01*
X15949643Y-14603214D01*
X16135357Y-14603214D01*
X16392500Y-14303214D02*
X16335357Y-14303214D01*
X16306785Y-14317500D01*
X16292500Y-14331786D01*
X16263928Y-14374643D01*
X16249643Y-14431786D01*
X16249643Y-14546071D01*
X16263928Y-14574643D01*
X16278214Y-14588929D01*
X16306785Y-14603214D01*
X16363928Y-14603214D01*
X16392500Y-14588929D01*
X16406785Y-14574643D01*
X16421071Y-14546071D01*
X16421071Y-14474643D01*
X16406785Y-14446071D01*
X16392500Y-14431786D01*
X16363928Y-14417500D01*
X16306785Y-14417500D01*
X16278214Y-14431786D01*
X16263928Y-14446071D01*
X16249643Y-14474643D01*
X16778214Y-14603214D02*
X16778214Y-14303214D01*
X16906786Y-14603214D02*
X16906786Y-14446071D01*
X16892500Y-14417500D01*
X16863928Y-14403214D01*
X16821071Y-14403214D01*
X16792500Y-14417500D01*
X16778214Y-14431786D01*
X17092500Y-14603214D02*
X17063928Y-14588929D01*
X17049643Y-14574643D01*
X17035357Y-14546071D01*
X17035357Y-14460357D01*
X17049643Y-14431786D01*
X17063928Y-14417500D01*
X17092500Y-14403214D01*
X17135357Y-14403214D01*
X17163928Y-14417500D01*
X17178214Y-14431786D01*
X17192500Y-14460357D01*
X17192500Y-14546071D01*
X17178214Y-14574643D01*
X17163928Y-14588929D01*
X17135357Y-14603214D01*
X17092500Y-14603214D01*
X17363928Y-14603214D02*
X17335357Y-14588929D01*
X17321071Y-14560357D01*
X17321071Y-14303214D01*
X17592500Y-14588929D02*
X17563929Y-14603214D01*
X17506786Y-14603214D01*
X17478214Y-14588929D01*
X17463929Y-14560357D01*
X17463929Y-14446071D01*
X17478214Y-14417500D01*
X17506786Y-14403214D01*
X17563929Y-14403214D01*
X17592500Y-14417500D01*
X17606786Y-14446071D01*
X17606786Y-14474643D01*
X17463929Y-14503214D01*
X17721071Y-14588929D02*
X17749643Y-14603214D01*
X17806786Y-14603214D01*
X17835357Y-14588929D01*
X17849643Y-14560357D01*
X17849643Y-14546071D01*
X17835357Y-14517500D01*
X17806786Y-14503214D01*
X17763929Y-14503214D01*
X17735357Y-14488929D01*
X17721071Y-14460357D01*
X17721071Y-14446071D01*
X17735357Y-14417500D01*
X17763929Y-14403214D01*
X17806786Y-14403214D01*
X17835357Y-14417500D01*
X17949643Y-14717500D02*
X17963929Y-14703214D01*
X17992500Y-14660357D01*
X18006786Y-14631786D01*
X18021071Y-14588929D01*
X18035357Y-14517500D01*
X18035357Y-14460357D01*
X18021071Y-14388929D01*
X18006786Y-14346071D01*
X17992500Y-14317500D01*
X17963929Y-14274643D01*
X17949643Y-14260357D01*
X11192500Y-14863500D02*
G75*
G03X11192500Y-14863500I-40000J0D01*
G01*
X11521071Y-14699214D02*
X11549643Y-14699214D01*
X11578214Y-14713500D01*
X11592500Y-14727786D01*
X11606786Y-14756357D01*
X11621071Y-14813500D01*
X11621071Y-14884929D01*
X11606786Y-14942071D01*
X11592500Y-14970643D01*
X11578214Y-14984929D01*
X11549643Y-14999214D01*
X11521071Y-14999214D01*
X11492500Y-14984929D01*
X11478214Y-14970643D01*
X11463928Y-14942071D01*
X11449643Y-14884929D01*
X11449643Y-14813500D01*
X11463928Y-14756357D01*
X11478214Y-14727786D01*
X11492500Y-14713500D01*
X11521071Y-14699214D01*
X11749643Y-14970643D02*
X11763928Y-14984929D01*
X11749643Y-14999214D01*
X11735357Y-14984929D01*
X11749643Y-14970643D01*
X11749643Y-14999214D01*
X11935357Y-14827786D02*
X11906786Y-14813500D01*
X11892500Y-14799214D01*
X11878214Y-14770643D01*
X11878214Y-14756357D01*
X11892500Y-14727786D01*
X11906786Y-14713500D01*
X11935357Y-14699214D01*
X11992500Y-14699214D01*
X12021071Y-14713500D01*
X12035357Y-14727786D01*
X12049643Y-14756357D01*
X12049643Y-14770643D01*
X12035357Y-14799214D01*
X12021071Y-14813500D01*
X11992500Y-14827786D01*
X11935357Y-14827786D01*
X11906786Y-14842071D01*
X11892500Y-14856357D01*
X11878214Y-14884929D01*
X11878214Y-14942071D01*
X11892500Y-14970643D01*
X11906786Y-14984929D01*
X11935357Y-14999214D01*
X11992500Y-14999214D01*
X12021071Y-14984929D01*
X12035357Y-14970643D01*
X12049643Y-14942071D01*
X12049643Y-14884929D01*
X12035357Y-14856357D01*
X12021071Y-14842071D01*
X11992500Y-14827786D01*
X12235357Y-14699214D02*
X12263928Y-14699214D01*
X12292500Y-14713500D01*
X12306786Y-14727786D01*
X12321071Y-14756357D01*
X12335357Y-14813500D01*
X12335357Y-14884929D01*
X12321071Y-14942071D01*
X12306786Y-14970643D01*
X12292500Y-14984929D01*
X12263928Y-14999214D01*
X12235357Y-14999214D01*
X12206786Y-14984929D01*
X12192500Y-14970643D01*
X12178214Y-14942071D01*
X12163928Y-14884929D01*
X12163928Y-14813500D01*
X12178214Y-14756357D01*
X12192500Y-14727786D01*
X12206786Y-14713500D01*
X12235357Y-14699214D01*
X12463928Y-14999214D02*
X12463928Y-14799214D01*
X12463928Y-14827786D02*
X12478214Y-14813500D01*
X12506786Y-14799214D01*
X12549643Y-14799214D01*
X12578214Y-14813500D01*
X12592500Y-14842071D01*
X12592500Y-14999214D01*
X12592500Y-14842071D02*
X12606786Y-14813500D01*
X12635357Y-14799214D01*
X12678214Y-14799214D01*
X12706786Y-14813500D01*
X12721071Y-14842071D01*
X12721071Y-14999214D01*
X12863928Y-14999214D02*
X12863928Y-14799214D01*
X12863928Y-14827786D02*
X12878214Y-14813500D01*
X12906786Y-14799214D01*
X12949643Y-14799214D01*
X12978214Y-14813500D01*
X12992500Y-14842071D01*
X12992500Y-14999214D01*
X12992500Y-14842071D02*
X13006786Y-14813500D01*
X13035357Y-14799214D01*
X13078214Y-14799214D01*
X13106786Y-14813500D01*
X13121071Y-14842071D01*
X13121071Y-14999214D01*
X13706786Y-14684929D02*
X13449643Y-15070643D01*
X14092500Y-14699214D02*
X14121071Y-14699214D01*
X14149643Y-14713500D01*
X14163928Y-14727786D01*
X14178214Y-14756357D01*
X14192500Y-14813500D01*
X14192500Y-14884929D01*
X14178214Y-14942071D01*
X14163928Y-14970643D01*
X14149643Y-14984929D01*
X14121071Y-14999214D01*
X14092500Y-14999214D01*
X14063928Y-14984929D01*
X14049643Y-14970643D01*
X14035357Y-14942071D01*
X14021071Y-14884929D01*
X14021071Y-14813500D01*
X14035357Y-14756357D01*
X14049643Y-14727786D01*
X14063928Y-14713500D01*
X14092500Y-14699214D01*
X14321071Y-14970643D02*
X14335357Y-14984929D01*
X14321071Y-14999214D01*
X14306786Y-14984929D01*
X14321071Y-14970643D01*
X14321071Y-14999214D01*
X14521071Y-14699214D02*
X14549643Y-14699214D01*
X14578214Y-14713500D01*
X14592500Y-14727786D01*
X14606785Y-14756357D01*
X14621071Y-14813500D01*
X14621071Y-14884929D01*
X14606785Y-14942071D01*
X14592500Y-14970643D01*
X14578214Y-14984929D01*
X14549643Y-14999214D01*
X14521071Y-14999214D01*
X14492500Y-14984929D01*
X14478214Y-14970643D01*
X14463928Y-14942071D01*
X14449643Y-14884929D01*
X14449643Y-14813500D01*
X14463928Y-14756357D01*
X14478214Y-14727786D01*
X14492500Y-14713500D01*
X14521071Y-14699214D01*
X14721071Y-14699214D02*
X14906785Y-14699214D01*
X14806785Y-14813500D01*
X14849643Y-14813500D01*
X14878214Y-14827786D01*
X14892500Y-14842071D01*
X14906785Y-14870643D01*
X14906785Y-14942071D01*
X14892500Y-14970643D01*
X14878214Y-14984929D01*
X14849643Y-14999214D01*
X14763928Y-14999214D01*
X14735357Y-14984929D01*
X14721071Y-14970643D01*
X15192500Y-14999214D02*
X15021071Y-14999214D01*
X15106785Y-14999214D02*
X15106785Y-14699214D01*
X15078214Y-14742071D01*
X15049643Y-14770643D01*
X15021071Y-14784929D01*
X15306786Y-14699214D02*
X15306786Y-14756357D01*
X15421071Y-14699214D02*
X15421071Y-14756357D01*
X15863928Y-15113500D02*
X15849643Y-15099214D01*
X15821071Y-15056357D01*
X15806785Y-15027786D01*
X15792500Y-14984929D01*
X15778214Y-14913500D01*
X15778214Y-14856357D01*
X15792500Y-14784929D01*
X15806785Y-14742071D01*
X15821071Y-14713500D01*
X15849643Y-14670643D01*
X15863928Y-14656357D01*
X16106785Y-14799214D02*
X16106785Y-14999214D01*
X16035357Y-14684929D02*
X15963928Y-14899214D01*
X16149643Y-14899214D01*
X16321071Y-14699214D02*
X16349643Y-14699214D01*
X16378214Y-14713500D01*
X16392500Y-14727786D01*
X16406785Y-14756357D01*
X16421071Y-14813500D01*
X16421071Y-14884929D01*
X16406785Y-14942071D01*
X16392500Y-14970643D01*
X16378214Y-14984929D01*
X16349643Y-14999214D01*
X16321071Y-14999214D01*
X16292500Y-14984929D01*
X16278214Y-14970643D01*
X16263928Y-14942071D01*
X16249643Y-14884929D01*
X16249643Y-14813500D01*
X16263928Y-14756357D01*
X16278214Y-14727786D01*
X16292500Y-14713500D01*
X16321071Y-14699214D01*
X16778214Y-14999214D02*
X16778214Y-14699214D01*
X16906786Y-14999214D02*
X16906786Y-14842071D01*
X16892500Y-14813500D01*
X16863928Y-14799214D01*
X16821071Y-14799214D01*
X16792500Y-14813500D01*
X16778214Y-14827786D01*
X17092500Y-14999214D02*
X17063928Y-14984929D01*
X17049643Y-14970643D01*
X17035357Y-14942071D01*
X17035357Y-14856357D01*
X17049643Y-14827786D01*
X17063928Y-14813500D01*
X17092500Y-14799214D01*
X17135357Y-14799214D01*
X17163928Y-14813500D01*
X17178214Y-14827786D01*
X17192500Y-14856357D01*
X17192500Y-14942071D01*
X17178214Y-14970643D01*
X17163928Y-14984929D01*
X17135357Y-14999214D01*
X17092500Y-14999214D01*
X17363928Y-14999214D02*
X17335357Y-14984929D01*
X17321071Y-14956357D01*
X17321071Y-14699214D01*
X17592500Y-14984929D02*
X17563929Y-14999214D01*
X17506786Y-14999214D01*
X17478214Y-14984929D01*
X17463929Y-14956357D01*
X17463929Y-14842071D01*
X17478214Y-14813500D01*
X17506786Y-14799214D01*
X17563929Y-14799214D01*
X17592500Y-14813500D01*
X17606786Y-14842071D01*
X17606786Y-14870643D01*
X17463929Y-14899214D01*
X17721071Y-14984929D02*
X17749643Y-14999214D01*
X17806786Y-14999214D01*
X17835357Y-14984929D01*
X17849643Y-14956357D01*
X17849643Y-14942071D01*
X17835357Y-14913500D01*
X17806786Y-14899214D01*
X17763929Y-14899214D01*
X17735357Y-14884929D01*
X17721071Y-14856357D01*
X17721071Y-14842071D01*
X17735357Y-14813500D01*
X17763929Y-14799214D01*
X17806786Y-14799214D01*
X17835357Y-14813500D01*
X17949643Y-15113500D02*
X17963929Y-15099214D01*
X17992500Y-15056357D01*
X18006786Y-15027786D01*
X18021071Y-14984929D01*
X18035357Y-14913500D01*
X18035357Y-14856357D01*
X18021071Y-14784929D01*
X18006786Y-14742071D01*
X17992500Y-14713500D01*
X17963929Y-14670643D01*
X17949643Y-14656357D01*
X11142500Y-15209500D02*
X11142500Y-15309500D01*
X11092500Y-15259500D02*
X11192500Y-15259500D01*
X11621071Y-15395214D02*
X11449643Y-15395214D01*
X11535357Y-15395214D02*
X11535357Y-15095214D01*
X11506786Y-15138071D01*
X11478214Y-15166643D01*
X11449643Y-15180929D01*
X11749643Y-15366643D02*
X11763928Y-15380929D01*
X11749643Y-15395214D01*
X11735357Y-15380929D01*
X11749643Y-15366643D01*
X11749643Y-15395214D01*
X11949643Y-15095214D02*
X11978214Y-15095214D01*
X12006786Y-15109500D01*
X12021071Y-15123786D01*
X12035357Y-15152357D01*
X12049643Y-15209500D01*
X12049643Y-15280929D01*
X12035357Y-15338071D01*
X12021071Y-15366643D01*
X12006786Y-15380929D01*
X11978214Y-15395214D01*
X11949643Y-15395214D01*
X11921071Y-15380929D01*
X11906786Y-15366643D01*
X11892500Y-15338071D01*
X11878214Y-15280929D01*
X11878214Y-15209500D01*
X11892500Y-15152357D01*
X11906786Y-15123786D01*
X11921071Y-15109500D01*
X11949643Y-15095214D01*
X12235357Y-15095214D02*
X12263928Y-15095214D01*
X12292500Y-15109500D01*
X12306786Y-15123786D01*
X12321071Y-15152357D01*
X12335357Y-15209500D01*
X12335357Y-15280929D01*
X12321071Y-15338071D01*
X12306786Y-15366643D01*
X12292500Y-15380929D01*
X12263928Y-15395214D01*
X12235357Y-15395214D01*
X12206786Y-15380929D01*
X12192500Y-15366643D01*
X12178214Y-15338071D01*
X12163928Y-15280929D01*
X12163928Y-15209500D01*
X12178214Y-15152357D01*
X12192500Y-15123786D01*
X12206786Y-15109500D01*
X12235357Y-15095214D01*
X12463928Y-15395214D02*
X12463928Y-15195214D01*
X12463928Y-15223786D02*
X12478214Y-15209500D01*
X12506786Y-15195214D01*
X12549643Y-15195214D01*
X12578214Y-15209500D01*
X12592500Y-15238071D01*
X12592500Y-15395214D01*
X12592500Y-15238071D02*
X12606786Y-15209500D01*
X12635357Y-15195214D01*
X12678214Y-15195214D01*
X12706786Y-15209500D01*
X12721071Y-15238071D01*
X12721071Y-15395214D01*
X12863928Y-15395214D02*
X12863928Y-15195214D01*
X12863928Y-15223786D02*
X12878214Y-15209500D01*
X12906786Y-15195214D01*
X12949643Y-15195214D01*
X12978214Y-15209500D01*
X12992500Y-15238071D01*
X12992500Y-15395214D01*
X12992500Y-15238071D02*
X13006786Y-15209500D01*
X13035357Y-15195214D01*
X13078214Y-15195214D01*
X13106786Y-15209500D01*
X13121071Y-15238071D01*
X13121071Y-15395214D01*
X13706786Y-15080929D02*
X13449643Y-15466643D01*
X14092500Y-15095214D02*
X14121071Y-15095214D01*
X14149643Y-15109500D01*
X14163928Y-15123786D01*
X14178214Y-15152357D01*
X14192500Y-15209500D01*
X14192500Y-15280929D01*
X14178214Y-15338071D01*
X14163928Y-15366643D01*
X14149643Y-15380929D01*
X14121071Y-15395214D01*
X14092500Y-15395214D01*
X14063928Y-15380929D01*
X14049643Y-15366643D01*
X14035357Y-15338071D01*
X14021071Y-15280929D01*
X14021071Y-15209500D01*
X14035357Y-15152357D01*
X14049643Y-15123786D01*
X14063928Y-15109500D01*
X14092500Y-15095214D01*
X14321071Y-15366643D02*
X14335357Y-15380929D01*
X14321071Y-15395214D01*
X14306786Y-15380929D01*
X14321071Y-15366643D01*
X14321071Y-15395214D01*
X14521071Y-15095214D02*
X14549643Y-15095214D01*
X14578214Y-15109500D01*
X14592500Y-15123786D01*
X14606785Y-15152357D01*
X14621071Y-15209500D01*
X14621071Y-15280929D01*
X14606785Y-15338071D01*
X14592500Y-15366643D01*
X14578214Y-15380929D01*
X14549643Y-15395214D01*
X14521071Y-15395214D01*
X14492500Y-15380929D01*
X14478214Y-15366643D01*
X14463928Y-15338071D01*
X14449643Y-15280929D01*
X14449643Y-15209500D01*
X14463928Y-15152357D01*
X14478214Y-15123786D01*
X14492500Y-15109500D01*
X14521071Y-15095214D01*
X14721071Y-15095214D02*
X14906785Y-15095214D01*
X14806785Y-15209500D01*
X14849643Y-15209500D01*
X14878214Y-15223786D01*
X14892500Y-15238071D01*
X14906785Y-15266643D01*
X14906785Y-15338071D01*
X14892500Y-15366643D01*
X14878214Y-15380929D01*
X14849643Y-15395214D01*
X14763928Y-15395214D01*
X14735357Y-15380929D01*
X14721071Y-15366643D01*
X15049643Y-15395214D02*
X15106785Y-15395214D01*
X15135357Y-15380929D01*
X15149643Y-15366643D01*
X15178214Y-15323786D01*
X15192500Y-15266643D01*
X15192500Y-15152357D01*
X15178214Y-15123786D01*
X15163928Y-15109500D01*
X15135357Y-15095214D01*
X15078214Y-15095214D01*
X15049643Y-15109500D01*
X15035357Y-15123786D01*
X15021071Y-15152357D01*
X15021071Y-15223786D01*
X15035357Y-15252357D01*
X15049643Y-15266643D01*
X15078214Y-15280929D01*
X15135357Y-15280929D01*
X15163928Y-15266643D01*
X15178214Y-15252357D01*
X15192500Y-15223786D01*
X15306786Y-15095214D02*
X15306786Y-15152357D01*
X15421071Y-15095214D02*
X15421071Y-15152357D01*
X15863928Y-15509500D02*
X15849643Y-15495214D01*
X15821071Y-15452357D01*
X15806785Y-15423786D01*
X15792500Y-15380929D01*
X15778214Y-15309500D01*
X15778214Y-15252357D01*
X15792500Y-15180929D01*
X15806785Y-15138071D01*
X15821071Y-15109500D01*
X15849643Y-15066643D01*
X15863928Y-15052357D01*
X16135357Y-15395214D02*
X15963928Y-15395214D01*
X16049643Y-15395214D02*
X16049643Y-15095214D01*
X16021071Y-15138071D01*
X15992500Y-15166643D01*
X15963928Y-15180929D01*
X16306785Y-15223786D02*
X16278214Y-15209500D01*
X16263928Y-15195214D01*
X16249643Y-15166643D01*
X16249643Y-15152357D01*
X16263928Y-15123786D01*
X16278214Y-15109500D01*
X16306785Y-15095214D01*
X16363928Y-15095214D01*
X16392500Y-15109500D01*
X16406785Y-15123786D01*
X16421071Y-15152357D01*
X16421071Y-15166643D01*
X16406785Y-15195214D01*
X16392500Y-15209500D01*
X16363928Y-15223786D01*
X16306785Y-15223786D01*
X16278214Y-15238071D01*
X16263928Y-15252357D01*
X16249643Y-15280929D01*
X16249643Y-15338071D01*
X16263928Y-15366643D01*
X16278214Y-15380929D01*
X16306785Y-15395214D01*
X16363928Y-15395214D01*
X16392500Y-15380929D01*
X16406785Y-15366643D01*
X16421071Y-15338071D01*
X16421071Y-15280929D01*
X16406785Y-15252357D01*
X16392500Y-15238071D01*
X16363928Y-15223786D01*
X16778214Y-15395214D02*
X16778214Y-15095214D01*
X16906786Y-15395214D02*
X16906786Y-15238071D01*
X16892500Y-15209500D01*
X16863928Y-15195214D01*
X16821071Y-15195214D01*
X16792500Y-15209500D01*
X16778214Y-15223786D01*
X17092500Y-15395214D02*
X17063928Y-15380929D01*
X17049643Y-15366643D01*
X17035357Y-15338071D01*
X17035357Y-15252357D01*
X17049643Y-15223786D01*
X17063928Y-15209500D01*
X17092500Y-15195214D01*
X17135357Y-15195214D01*
X17163928Y-15209500D01*
X17178214Y-15223786D01*
X17192500Y-15252357D01*
X17192500Y-15338071D01*
X17178214Y-15366643D01*
X17163928Y-15380929D01*
X17135357Y-15395214D01*
X17092500Y-15395214D01*
X17363928Y-15395214D02*
X17335357Y-15380929D01*
X17321071Y-15352357D01*
X17321071Y-15095214D01*
X17592500Y-15380929D02*
X17563929Y-15395214D01*
X17506786Y-15395214D01*
X17478214Y-15380929D01*
X17463929Y-15352357D01*
X17463929Y-15238071D01*
X17478214Y-15209500D01*
X17506786Y-15195214D01*
X17563929Y-15195214D01*
X17592500Y-15209500D01*
X17606786Y-15238071D01*
X17606786Y-15266643D01*
X17463929Y-15295214D01*
X17721071Y-15380929D02*
X17749643Y-15395214D01*
X17806786Y-15395214D01*
X17835357Y-15380929D01*
X17849643Y-15352357D01*
X17849643Y-15338071D01*
X17835357Y-15309500D01*
X17806786Y-15295214D01*
X17763929Y-15295214D01*
X17735357Y-15280929D01*
X17721071Y-15252357D01*
X17721071Y-15238071D01*
X17735357Y-15209500D01*
X17763929Y-15195214D01*
X17806786Y-15195214D01*
X17835357Y-15209500D01*
X18206786Y-15280929D02*
X18435357Y-15280929D01*
X18321071Y-15395214D02*
X18321071Y-15166643D01*
X18778214Y-15095214D02*
X18963928Y-15095214D01*
X18863928Y-15209500D01*
X18906786Y-15209500D01*
X18935357Y-15223786D01*
X18949643Y-15238071D01*
X18963928Y-15266643D01*
X18963928Y-15338071D01*
X18949643Y-15366643D01*
X18935357Y-15380929D01*
X18906786Y-15395214D01*
X18821071Y-15395214D01*
X18792500Y-15380929D01*
X18778214Y-15366643D01*
X19306786Y-15380929D02*
X19335357Y-15395214D01*
X19392500Y-15395214D01*
X19421071Y-15380929D01*
X19435357Y-15352357D01*
X19435357Y-15338071D01*
X19421071Y-15309500D01*
X19392500Y-15295214D01*
X19349643Y-15295214D01*
X19321071Y-15280929D01*
X19306786Y-15252357D01*
X19306786Y-15238071D01*
X19321071Y-15209500D01*
X19349643Y-15195214D01*
X19392500Y-15195214D01*
X19421071Y-15209500D01*
X19606786Y-15395214D02*
X19578214Y-15380929D01*
X19563928Y-15352357D01*
X19563928Y-15095214D01*
X19763928Y-15395214D02*
X19735357Y-15380929D01*
X19721071Y-15366643D01*
X19706786Y-15338071D01*
X19706786Y-15252357D01*
X19721071Y-15223786D01*
X19735357Y-15209500D01*
X19763928Y-15195214D01*
X19806786Y-15195214D01*
X19835357Y-15209500D01*
X19849643Y-15223786D01*
X19863928Y-15252357D01*
X19863928Y-15338071D01*
X19849643Y-15366643D01*
X19835357Y-15380929D01*
X19806786Y-15395214D01*
X19763928Y-15395214D01*
X19949643Y-15195214D02*
X20063928Y-15195214D01*
X19992500Y-15095214D02*
X19992500Y-15352357D01*
X20006786Y-15380929D01*
X20035357Y-15395214D01*
X20063928Y-15395214D01*
X20149643Y-15380929D02*
X20178214Y-15395214D01*
X20235357Y-15395214D01*
X20263929Y-15380929D01*
X20278214Y-15352357D01*
X20278214Y-15338071D01*
X20263929Y-15309500D01*
X20235357Y-15295214D01*
X20192500Y-15295214D01*
X20163929Y-15280929D01*
X20149643Y-15252357D01*
X20149643Y-15238071D01*
X20163929Y-15209500D01*
X20192500Y-15195214D01*
X20235357Y-15195214D01*
X20263929Y-15209500D01*
X20378214Y-15509500D02*
X20392500Y-15495214D01*
X20421071Y-15452357D01*
X20435357Y-15423786D01*
X20449643Y-15380929D01*
X20463928Y-15309500D01*
X20463928Y-15252357D01*
X20449643Y-15180929D01*
X20435357Y-15138071D01*
X20421071Y-15109500D01*
X20392500Y-15066643D01*
X20378214Y-15052357D01*
M02*
